<svg width="398" height="300" viewBox="0 0 398 300" fill="none" xmlns="http://www.w3.org/2000/svg">
<rect x="61" y="70" width="282" height="161" fill="black"/>
<path d="M44 71.8364C44 70.2699 45.2733 69 46.844 69H351.156C352.727 69 354 70.2699 354 71.8364V122H44V71.8364Z" fill="white"/>
<path d="M330 92L323.001 99L316 92" stroke="black" stroke-width="0.778571" stroke-linecap="round" stroke-linejoin="round"/>
<path d="M152.294 90H66.7059C63.5546 90 61 92.6863 61 96C61 99.3137 63.5546 102 66.7059 102H152.294C155.445 102 158 99.3137 158 96C158 92.6863 155.445 90 152.294 90Z" fill="#1DCC64"/>
<path d="M44 123H354V176H44V123Z" fill="white"/>
<path d="M330 146L323.001 153L316 146" stroke="black" stroke-width="0.778571" stroke-linecap="round" stroke-linejoin="round"/>
<path d="M152.294 144H66.7059C63.5546 144 61 146.686 61 150C61 153.314 63.5546 156 66.7059 156H152.294C155.445 156 158 153.314 158 150C158 146.686 155.445 144 152.294 144Z" fill="#1DCC64"/>
<path d="M44 177H354V227.164C354 228.731 352.727 230 351.156 230H46.844C45.2733 230 44 228.731 44 227.164V177Z" fill="white"/>
<path d="M330 200L323.001 207L316 200" stroke="black" stroke-width="0.778571" stroke-linecap="round" stroke-linejoin="round"/>
<path d="M152.294 199H66.7059C63.5546 199 61 201.462 61 204.5C61 207.538 63.5546 210 66.7059 210H152.294C155.445 210 158 207.538 158 204.5C158 201.462 155.445 199 152.294 199Z" fill="#1DCC64"/>
</svg>
