<svg width="400" height="301" viewBox="0 0 400 301" fill="none" xmlns="http://www.w3.org/2000/svg">
<path d="M289.273 129.477H110.728C99.1421 129.477 89.7502 138.869 89.7502 150.455C89.7502 162.04 99.1421 171.432 110.728 171.432H289.273C300.858 171.432 310.25 162.04 310.25 150.455C310.25 138.869 300.858 129.477 289.273 129.477Z" fill="white"/>
<path fill-rule="evenodd" clip-rule="evenodd" d="M350 178.392V123.608C350 118.854 346.1 115 341.289 115H58.7112C53.9002 115 50 118.854 50 123.608V178.392C50 183.146 53.9002 187 58.7112 187H341.289C346.1 187 350 183.146 350 178.392Z" fill="#2CDB61"/>
<mask id="mask0_4_73" style="mask-type:luminance" maskUnits="userSpaceOnUse" x="62" y="127" width="278" height="49">
<path d="M339.916 127.074H62.2188V175.372H339.916V127.074Z" fill="white"/>
</mask>
<g mask="url(#mask0_4_73)">
<path d="M273.4 141H126.775C121.376 141 117 145.325 117 150.659C117 155.994 121.376 160.319 126.775 160.319H273.4C278.798 160.319 283.175 155.994 283.175 150.659C283.175 145.325 278.798 141 273.4 141Z" fill="white"/>
</g>
</svg>
