<svg width="398" height="300" viewBox="0 0 398 300" fill="none" xmlns="http://www.w3.org/2000/svg">
<path d="M120 200H150" stroke="white" stroke-width="2.91922"/>
<path d="M211 200H240" stroke="white" stroke-width="2.91922"/>
<path fill-rule="evenodd" clip-rule="evenodd" d="M351.281 234H221.719C213.036 234 206 227.032 206 218.433V80.5689C206 71.9697 213.036 65 221.719 65H351.281C359.963 65 367 71.9697 367 80.5689V218.433C367 227.032 359.963 234 351.281 234Z" fill="#82ED82"/>
<path fill-rule="evenodd" clip-rule="evenodd" d="M177.281 234H47.7193C39.0374 234 32 227.032 32 218.433V80.5689C32 71.9697 39.0374 65 47.7193 65H177.281C185.963 65 193 71.9697 193 80.5689V218.433C193 227.032 185.963 234 177.281 234Z" fill="#2CDB61"/>
<path d="M58 199H116" stroke="white" stroke-width="2.91922"/>
<path d="M233 199H291" stroke="white" stroke-width="2.91922"/>
</svg>
