<svg width="400" height="300" viewBox="0 0 400 300" fill="none" xmlns="http://www.w3.org/2000/svg">
<path fill-rule="evenodd" clip-rule="evenodd" d="M191.831 147.122H105.291C102.381 147.122 100 144.741 100 141.831V55.291C100 52.381 102.381 50 105.291 50H191.831C194.741 50 197.122 52.381 197.122 55.291V141.831C197.122 144.741 194.741 147.122 191.831 147.122Z" fill="#F0F0F2"/>
<path fill-rule="evenodd" clip-rule="evenodd" d="M294.709 147.122H208.169C205.259 147.122 202.878 144.741 202.878 141.831V55.291C202.878 52.381 205.259 50 208.169 50H294.709C297.619 50 300 52.381 300 55.291V141.831C300 144.741 297.619 147.122 294.709 147.122Z" fill="#F0F0F2"/>
<path fill-rule="evenodd" clip-rule="evenodd" d="M197.122 158.169V244.709C197.122 247.619 194.741 250 191.831 250H105.291C102.381 250 100 247.619 100 244.709V158.169C100 155.259 102.381 152.878 105.291 152.878H191.831C194.741 152.878 197.122 155.259 197.122 158.169Z" fill="#F0F0F2"/>
<path fill-rule="evenodd" clip-rule="evenodd" d="M300 158.169V244.709C300 247.619 297.619 250 294.709 250H208.169C205.259 250 202.878 247.619 202.878 244.709V158.169C202.878 155.259 205.259 152.878 208.169 152.878H294.709C297.619 152.878 300 155.259 300 158.169Z" fill="#F0F0F2"/>
<path fill-rule="evenodd" clip-rule="evenodd" d="M187.647 73.2205C187.647 80.9125 181.412 87.1469 173.721 87.1469C166.029 87.1469 159.794 80.9125 159.794 73.2205C159.794 65.5286 166.029 59.2942 173.721 59.2942C181.412 59.2942 187.647 65.5286 187.647 73.2205Z" fill="#2CDB61"/>
<path d="M180.163 69.2373L172.289 77.1119L167.278 72.1004" stroke="white" stroke-width="1.07179"/>
<path fill-rule="evenodd" clip-rule="evenodd" d="M290.75 73.2205C290.75 80.9125 284.515 87.1469 276.824 87.1469C269.132 87.1469 262.896 80.9125 262.896 73.2205C262.896 65.5286 269.132 59.2942 276.824 59.2942C284.515 59.2942 290.75 65.5286 290.75 73.2205Z" fill="#2CDB61"/>
<path d="M283.266 69.2373L275.391 77.1119L270.381 72.1004" stroke="white" stroke-width="1.07179"/>
<path fill-rule="evenodd" clip-rule="evenodd" d="M187.647 175.843C187.647 183.535 181.412 189.769 173.721 189.769C166.029 189.769 159.794 183.535 159.794 175.843C159.794 168.151 166.029 161.916 173.721 161.916C181.412 161.916 187.647 168.151 187.647 175.843Z" fill="#2CDB61"/>
<path fill-rule="evenodd" clip-rule="evenodd" d="M290.75 175.843C290.75 183.535 284.515 189.769 276.824 189.769C269.132 189.769 262.896 183.535 262.896 175.843C262.896 168.151 269.132 161.916 276.824 161.916C284.515 161.916 290.75 168.151 290.75 175.843Z" stroke="white" stroke-width="1.16923"/>
<path d="M180.163 171.859L172.289 179.733L167.278 174.722" stroke="white" stroke-width="1.07179"/>
</svg>
