<svg width="398" height="300" viewBox="0 0 398 300" fill="none" xmlns="http://www.w3.org/2000/svg">
<path d="M345.143 70H52.8571C47.9655 70 44 73.2302 44 77.2148V222.785C44 226.77 47.9655 230 52.8571 230H345.143C350.035 230 354 226.77 354 222.785V77.2148C354 73.2302 350.035 70 345.143 70Z" fill="white"/>
<path d="M294.275 98.8592H103.725C101.369 98.8592 99.4587 100.415 99.4587 102.334C99.4587 104.253 101.369 105.809 103.725 105.809H294.275C296.631 105.809 298.541 104.253 298.541 102.334C298.541 100.415 296.631 98.8592 294.275 98.8592Z" fill="#82ED82"/>
<path d="M294.275 113.024H103.725C101.369 113.024 99.4587 114.58 99.4587 116.499C99.4587 118.418 101.369 119.974 103.725 119.974H294.275C296.631 119.974 298.541 118.418 298.541 116.499C298.541 114.58 296.631 113.024 294.275 113.024Z" fill="#82ED82"/>
<path d="M354 148.833H44V149.735H354V148.833Z" fill="#333333"/>
<path d="M225.307 164.942H172.693C169.551 164.942 167.005 167.017 167.005 169.576C167.005 172.135 169.551 174.209 172.693 174.209H225.307C228.449 174.209 230.995 172.135 230.995 169.576C230.995 167.017 228.449 164.942 225.307 164.942Z" fill="#2CDB61"/>
<path d="M354 189.416H44V190.318H354V189.416Z" fill="#333333"/>
<path d="M225.307 205.525H172.693C169.551 205.525 167.005 207.599 167.005 210.158C167.005 212.717 169.551 214.792 172.693 214.792H225.307C228.449 214.792 230.995 212.717 230.995 210.158C230.995 207.599 228.449 205.525 225.307 205.525Z" fill="#82ED82"/>
</svg>
