<svg width="400" height="300" viewBox="0 0 400 300" fill="none" xmlns="http://www.w3.org/2000/svg">
<path fill-rule="evenodd" clip-rule="evenodd" d="M263.98 87.4383C263.98 97.0694 272.043 104.877 281.99 104.877C291.936 104.877 300 97.0694 300 87.4383C300 77.8072 291.936 70 281.99 70C272.043 70 263.98 77.8072 263.98 87.4383Z" stroke="#DFDFDF" stroke-width="1.46154"/>
<path fill-rule="evenodd" clip-rule="evenodd" d="M272.554 87.4382C272.554 92.4835 276.779 96.5739 281.99 96.5739C287.2 96.5739 291.424 92.4835 291.424 87.4382C291.424 82.393 287.2 78.3026 281.99 78.3026C276.779 78.3026 272.554 82.393 272.554 87.4382Z" fill="#2CDB61"/>
<path d="M246.989 87.4386H100" stroke="#DFDFDF" stroke-width="2.92308"/>
<path fill-rule="evenodd" clip-rule="evenodd" d="M263.98 150.001C263.98 159.632 272.043 167.439 281.99 167.439C291.936 167.439 300 159.632 300 150.001C300 140.37 291.936 132.563 281.99 132.563C272.043 132.563 263.98 140.37 263.98 150.001Z" stroke="#DFDFDF" stroke-width="1.46154"/>
<path d="M246.989 150H100" stroke="#DFDFDF" stroke-width="2.92308"/>
<path fill-rule="evenodd" clip-rule="evenodd" d="M263.98 212.562C263.98 222.193 272.043 230 281.99 230C291.936 230 300 222.193 300 212.562C300 202.931 291.936 195.124 281.99 195.124C272.043 195.124 263.98 202.931 263.98 212.562Z" stroke="#DFDFDF" stroke-width="1.46154"/>
<path d="M246.989 212.562H100" stroke="#DFDFDF" stroke-width="2.92308"/>
</svg>
