<svg width="400" height="300" viewBox="0 0 400 300" fill="none" xmlns="http://www.w3.org/2000/svg">
<path d="M343.119 85H56.8808C53.0806 85 50 88.0806 50 91.8808V128.578C50 132.378 53.0806 135.459 56.8808 135.459H343.119C346.919 135.459 350 132.378 350 128.578V91.8808C350 88.0806 346.919 85 343.119 85Z" fill="white"/>
<path fill-rule="evenodd" clip-rule="evenodd" d="M307.752 106.173C308.022 105.903 308.459 105.903 308.728 106.173L316.523 113.967L324.317 106.173C324.586 105.903 325.023 105.903 325.293 106.173C325.562 106.442 325.562 106.879 325.293 107.149L317.01 115.431C316.741 115.7 316.304 115.7 316.034 115.431L307.752 107.149C307.483 106.879 307.483 106.442 307.752 106.173Z" fill="#222222"/>
<path d="M259.727 105H74.2727C70.2561 105 67 107.462 67 110.5C67 113.538 70.2561 116 74.2727 116H259.727C263.744 116 267 113.538 267 110.5C267 107.462 263.744 105 259.727 105Z" fill="#F0F0F2"/>
<path d="M343.119 85H56.8808C53.0806 85 50 88.0806 50 91.8808V128.578C50 132.378 53.0806 135.459 56.8808 135.459H343.119C346.919 135.459 350 132.378 350 128.578V91.8808C350 88.0806 346.919 85 343.119 85Z" stroke="#E0E0E0" stroke-width="0.664634"/>
<path d="M343.119 165H56.8808C53.0806 165 50 168.081 50 171.881V208.578C50 212.378 53.0806 215.459 56.8808 215.459H343.119C346.919 215.459 350 212.378 350 208.578V171.881C350 168.081 346.919 165 343.119 165Z" fill="white"/>
<path fill-rule="evenodd" clip-rule="evenodd" d="M307.752 186.173C308.022 185.903 308.459 185.903 308.728 186.173L316.523 193.967L324.317 186.173C324.586 185.903 325.023 185.903 325.293 186.173C325.562 186.442 325.562 186.879 325.293 187.149L317.01 195.431C316.741 195.7 316.304 195.7 316.034 195.431L307.752 187.149C307.483 186.879 307.483 186.442 307.752 186.173Z" fill="#222222"/>
<path d="M259.727 185H74.2727C70.2561 185 67 187.462 67 190.5C67 193.538 70.2561 196 74.2727 196H259.727C263.744 196 267 193.538 267 190.5C267 187.462 263.744 185 259.727 185Z" fill="#F0F0F2"/>
<path d="M343.119 165H56.8808C53.0806 165 50 168.081 50 171.881V208.578C50 212.378 53.0806 215.459 56.8808 215.459H343.119C346.919 215.459 350 212.378 350 208.578V171.881C350 168.081 346.919 165 343.119 165Z" stroke="#E0E0E0" stroke-width="0.664634"/>
</svg>
