<svg width="400" height="300" viewBox="0 0 400 300" fill="none" xmlns="http://www.w3.org/2000/svg">
<path fill-rule="evenodd" clip-rule="evenodd" d="M223.825 225H176.175C161.719 225 150 213.491 150 199.294C150 185.097 161.719 173.588 176.175 173.588H223.825C238.281 173.588 250 185.097 250 199.294C250 213.491 238.281 225 223.825 225Z" fill="#F0F0F2"/>
<path fill-rule="evenodd" clip-rule="evenodd" d="M194.242 199.294C194.242 189.495 186.153 181.552 176.175 181.552C166.198 181.552 158.109 189.495 158.109 199.294C158.109 209.093 166.198 217.036 176.175 217.036C186.153 217.036 194.242 209.093 194.242 199.294Z" fill="white"/>
<path fill-rule="evenodd" clip-rule="evenodd" d="M176.175 75H223.825C238.281 75 250 86.5088 250 100.705C250 114.903 238.281 126.412 223.825 126.412H176.175C161.719 126.412 150 114.903 150 100.705C150 86.5088 161.719 75 176.175 75Z" fill="#2CDB61"/>
<path fill-rule="evenodd" clip-rule="evenodd" d="M205.758 100.707C205.758 110.505 213.847 118.448 223.825 118.448C233.801 118.448 241.891 110.505 241.891 100.707C241.891 90.9077 233.801 82.9647 223.825 82.9647C213.847 82.9647 205.758 90.9077 205.758 100.707Z" fill="white"/>
</svg>
