<svg width="401" height="300" viewBox="0 0 401 300" fill="none" xmlns="http://www.w3.org/2000/svg">
<path d="M398.772 125H2.22778C0.99741 125 0 125.895 0 127V173C0 174.105 0.99741 175 2.22778 175H398.772C400.003 175 401 174.105 401 173V127C401 125.895 400.003 125 398.772 125Z" fill="#F0F0F2"/>
<mask id="mask0_28_34" style="mask-type:luminance" maskUnits="userSpaceOnUse" x="36" y="125" width="77" height="50">
<path d="M113 125H36V175H113V125Z" fill="white"/>
</mask>
<g mask="url(#mask0_28_34)">
<path d="M99.9153 139H50.0847C47.2765 139 45 141.686 45 145C45 148.314 47.2765 151 50.0847 151H99.9153C102.723 151 105 148.314 105 145C105 141.686 102.723 139 99.9153 139Z" fill="#2CDB61"/>
<path d="M114 124H35V174H114V124Z" stroke="#2CDB61" stroke-width="2"/>
</g>
<path d="M184.915 139H135.085C132.277 139 130 141.686 130 145C130 148.314 132.277 151 135.085 151H184.915C187.723 151 190 148.314 190 145C190 141.686 187.723 139 184.915 139Z" fill="#82ED82"/>
<path d="M267.915 139H218.085C215.277 139 213 141.686 213 145C213 148.314 215.277 151 218.085 151H267.915C270.723 151 273 148.314 273 145C273 141.686 270.723 139 267.915 139Z" fill="#82ED82"/>
<path d="M350.915 139H301.085C298.277 139 296 141.686 296 145C296 148.314 298.277 151 301.085 151H350.915C353.723 151 356 148.314 356 145C356 141.686 353.723 139 350.915 139Z" fill="#82ED82"/>
</svg>
