<svg width="398" height="300" viewBox="0 0 398 300" fill="none" xmlns="http://www.w3.org/2000/svg">
<rect x="49" y="46" width="302" height="188" fill="#F5F5F5"/>
<path d="M350 47H50V233H350V47Z" fill="white" stroke="#F5F5F5" stroke-width="0.1"/>
<path d="M350 201H50V202H350V201Z" fill="#F5F5F5" stroke="#F5F5F5" stroke-width="0.1"/>
<path d="M350 170H50V171H350V170Z" fill="#F5F5F5" stroke="#F5F5F5" stroke-width="0.1"/>
<path d="M350 139H50V140H350V139Z" fill="#F5F5F5" stroke="#F5F5F5" stroke-width="0.1"/>
<path d="M350 108H50V109H350V108Z" fill="#F5F5F5" stroke="#F5F5F5" stroke-width="0.1"/>
<path d="M151 233L151 47L150 47L150 233L151 233Z" fill="#F5F5F5" stroke="#F5F5F5" stroke-width="0.1"/>
<path d="M252 233L252 47L251 47L251 233L252 233Z" fill="#F5F5F5" stroke="#F5F5F5" stroke-width="0.1"/>
<path d="M350 77H50V78H350V77Z" fill="#F5F5F5" stroke="#F5F5F5" stroke-width="0.1"/>
<path d="M126.302 57H73.688C70.546 57 68 59.074 68 61.633C68 64.192 70.546 66.267 73.688 66.267H126.302C129.444 66.267 131.99 64.192 131.99 61.633C131.99 59.074 129.444 57 126.302 57Z" fill="#1DCC64"/>
<path d="M227.302 57H174.688C171.546 57 169 59.074 169 61.633C169 64.192 171.546 66.267 174.688 66.267H227.302C230.444 66.267 232.99 64.192 232.99 61.633C232.99 59.074 230.444 57 227.302 57Z" fill="#82ED82"/>
<path d="M327.302 57H274.688C271.546 57 269 59.074 269 61.633C269 64.192 271.546 66.267 274.688 66.267H327.302C330.444 66.267 332.99 64.192 332.99 61.633C332.99 59.074 330.444 57 327.302 57Z" fill="#82ED82"/>
</svg>
