<svg width="400" height="298" viewBox="0 0 400 298" fill="none" xmlns="http://www.w3.org/2000/svg">
<path fill-rule="evenodd" clip-rule="evenodd" d="M320.737 150.723L305.971 135.826L309.051 132.72L323.816 147.616L320.737 150.723Z" fill="#DFDFDF"/>
<path fill-rule="evenodd" clip-rule="evenodd" d="M309.05 150.723L305.971 147.616L320.736 132.72L323.816 135.826L309.05 150.723Z" fill="#DFDFDF"/>
<path fill-rule="evenodd" clip-rule="evenodd" d="M75 175.333H325V170.939H75V175.333Z" fill="black"/>
<path fill-rule="evenodd" clip-rule="evenodd" d="M91.0714 153.049H95.4268V130.394H91.0714V153.049Z" fill="black"/>
<path fill-rule="evenodd" clip-rule="evenodd" d="M101.884 149.287L82.4373 137.96L84.6149 134.156L104.062 145.482L101.884 149.287Z" fill="black"/>
<path fill-rule="evenodd" clip-rule="evenodd" d="M84.6142 149.287L82.4365 145.482L101.883 134.156L104.061 137.96L84.6142 149.287Z" fill="black"/>
<path fill-rule="evenodd" clip-rule="evenodd" d="M121.466 153.049H125.822V130.394H121.466V153.049Z" fill="black"/>
<path fill-rule="evenodd" clip-rule="evenodd" d="M132.278 149.287L112.831 137.96L115.008 134.156L134.456 145.482L132.278 149.287Z" fill="black"/>
<path fill-rule="evenodd" clip-rule="evenodd" d="M115.009 149.287L112.831 145.482L132.279 134.156L134.456 137.96L115.009 149.287Z" fill="black"/>
<path fill-rule="evenodd" clip-rule="evenodd" d="M151.86 153.049H156.215V130.394H151.86V153.049Z" fill="black"/>
<path fill-rule="evenodd" clip-rule="evenodd" d="M162.672 149.287L143.225 137.96L145.402 134.156L164.85 145.482L162.672 149.287Z" fill="black"/>
<path fill-rule="evenodd" clip-rule="evenodd" d="M145.403 149.287L143.225 145.482L162.673 134.156L164.85 137.96L145.403 149.287Z" fill="black"/>
<path fill-rule="evenodd" clip-rule="evenodd" d="M182.326 153.049H186.681V130.394H182.326V153.049Z" fill="black"/>
<path fill-rule="evenodd" clip-rule="evenodd" d="M193.138 149.287L173.692 137.96L175.869 134.156L195.316 145.482L193.138 149.287Z" fill="black"/>
<path fill-rule="evenodd" clip-rule="evenodd" d="M175.869 149.287L173.691 145.482L193.138 134.156L195.315 137.96L175.869 149.287Z" fill="black"/>
<path fill-rule="evenodd" clip-rule="evenodd" d="M212.962 153.049H217.317V130.394H212.962V153.049Z" fill="black"/>
<path fill-rule="evenodd" clip-rule="evenodd" d="M223.775 149.287L204.328 137.96L206.506 134.156L225.953 145.482L223.775 149.287Z" fill="black"/>
<path fill-rule="evenodd" clip-rule="evenodd" d="M206.506 149.287L204.328 145.482L223.774 134.156L225.952 137.96L206.506 149.287Z" fill="black"/>
<path fill-rule="evenodd" clip-rule="evenodd" d="M234.045 161.442H238.401V122H234.045V161.442Z" fill="#2CDB61"/>
</svg>
